<?xml version="1.0" standalone="no"?>
<!DOCTYPE svg PUBLIC "-//W3C//DTD SVG 20010904//EN"
 "http://www.w3.org/TR/2001/REC-SVG-20010904/DTD/svg10.dtd">
<svg version="1.0" xmlns="http://www.w3.org/2000/svg"
 width="181.000000pt" height="181.000000pt" viewBox="0 0 181.000000 181.000000"
 preserveAspectRatio="xMidYMid meet">
<metadata>
Created by potrace 1.14, written by Peter Selinger 2001-2017
</metadata>
<g transform="translate(0.000000,181.000000) scale(0.100000,-0.100000)"
fill="#000000" stroke="none">
<path d="M818 1805 c-2 -2 -23 -5 -48 -8 -75 -10 -190 -46 -264 -84 -221 -110
-382 -292 -457 -517 -37 -109 -40 -131 -44 -276 -3 -139 17 -248 69 -368 49
-115 93 -178 196 -283 288 -294 743 -346 1101 -127 108 66 238 197 301 304 51
85 101 222 117 319 19 119 1 336 -38 437 -5 13 -9 26 -10 31 -2 16 -56 116
-97 177 -117 178 -350 338 -545 375 -13 3 -37 7 -53 11 -28 6 -223 13 -228 9z"/>
</g>
</svg>
